<?xml version="1.0" encoding="UTF-8"?>
<svg id="Layer_1" data-name="Layer 1" xmlns="http://www.w3.org/2000/svg" viewBox="0 0 1862.82 176.42">
  <defs>
    <style>
      .cls-1 {
        fill: #fcc016;
        stroke-width: 0px;
      }
    </style>
  </defs>
  <path class="cls-1" d="m0,0s6.82,63,28.82,120c0,0,44.03,79.07,122,50,31.33-11.68,60.78-59.61,93-79,28.45-17.12,59.15-6.64,94-6,37.37.69,103.01-30.35,134-15,37.72,18.69,40.02,84.86,79,92,.06-.14,93.48,31.25,150-2,51-30,70.71-102.91,79-96,0,0,37,73,85,71,0,0,48-3,67-57,0,0,12-28,20,2,0,0,10,52,41,65,0,0,74,36,114-67,0,0,8-26,25-30,29.09-6.85,70.58-10.51,93-12,42.33-2.82,101,33,133,28,10.95-1,44.39-34.78,87-47,39.06-11.2,85.57-4.57,81.76,4.26-19.33,15.65-31.76,39.94-31.76,67.24,0,47.22,37.16,85.5,83,85.5s83-38.28,83-85.5c0-20.76-7.19-39.79-19.14-54.6-1.05-2.15-2.33-4.13-3.86-5.9-15.68-18,3-23,3-23,0,0,68.34,20.91,95,14,27-7,117.57-19,127-19H0Z"/>
</svg>