<?xml version="1.0" encoding="UTF-8"?>
<svg id="Layer_1" data-name="Layer 1" xmlns="http://www.w3.org/2000/svg" viewBox="0 0 1717.82 181.09">
  <defs>
    <style>
      .cls-1 {
        fill: #fcc016;
        stroke-width: 0px;
      }
    </style>
  </defs>
  <path class="cls-1" d="m24.82,107.09s45,65,88,2c0,0,7-32,42,27,0,0,44,79,139,12,0,0,35-39,58-85,0,0,4,25,12,44,6.62,15.72,33,63,67,66,0,0,49,19,96-56,0,0,20-19,40-17,0,0,52,83,106,75,0,0,58,4,76-56,0,0,48-85,58-47,0,0,38,89,78,74,0,0,35-18,43-72,0,0,12-19,24,6,0,0,10,52,41,65,0,0,74,36,114-67,0,0,8-26,25-30,29.09-6.85,70.58-10.51,93-12,42.33-2.82,101,33,133,28,22-2,87.07-32.37,125-4,0,0,20.64,26.05,26,57,0,0,.05.04.13.09,2.11,35.65,31.68,63.91,67.87,63.91s63.96-26.58,67.6-60.7c.13-.1.26-.2.4-.3,0,0,15.94-116.26,67.79-120H0s3.82,76,24.82,107Z"/>
  <path class="cls-1" d="m1712.61.09h5.21c-1.78-.13-3.51-.12-5.21,0Z"/>
</svg>