<?xml version="1.0" encoding="UTF-8"?>
<svg id="Layer_1" data-name="Layer 1" xmlns="http://www.w3.org/2000/svg" viewBox="0 0 929.43 1202.47">
  <defs>
    <style>
      .cls-1, .cls-2 {
        fill: none;
        stroke: #ea9d34;
        stroke-miterlimit: 10;
        stroke-width: 4px;
      }

      .cls-2 {
        stroke-dasharray: 0 0 15.03 15.03;
      }
    </style>
  </defs>
  <path class="cls-1" d="m2.41.11c-.09,1.73-.22,4.26-.31,7.49"/>
  <path class="cls-2" d="m2,22.62c.69,50.67,12.36,166.3,101.41,240.06,61.84,51.22,131.94,58.2,156,60.28,149.86,12.93,203.77-94.75,293-73.56,132.11,31.37,226.26,317.81,144,405.62-54.57,58.25-184.02,26.16-306-4.09-173.91-43.12-223.15-103.56-280-73.56-84.37,44.52-115.3,251.21-36,325.92,97.48,91.84,275.78-96.53,572-30.65,119.09,26.49,282.64,99.71,281,184.93-1.29,66.95-104.09,117.38-151.11,137.34"/>
  <path class="cls-1" d="m769.37,1197.8c-2.59,1.06-4.92,2-6.95,2.81"/>
</svg>